{"asset":{"copyright":"ge","generator":"Khronos glTF Blender I/O v1.6.16","version":"2.0"},"scene":0,"scenes":[{"name":"Scene","nodes":[0,1,2,3,4,5,6,7]}],"nodes":[{"mesh":0,"name":"Curve.004","scale":[5039.08056640625,53.4549560546875,5039.08056640625],"translation":[18.635568618774414,0,-26.90716552734375]},{"mesh":1,"name":"Cylinder","scale":[0.416797935962677,0.5244441032409668,0.416797935962677],"translation":[19.157424926757812,0,-26.20296859741211]},{"mesh":2,"name":"Cylinder.001","scale":[0.15578483045101166,0.5244441032409668,0.15578483045101166],"translation":[19.20988655090332,0,-26.447792053222656]},{"mesh":3,"name":"Cylinder.002","scale":[0.06124955043196678,0.5244441032409668,0.06124955043196678],"translation":[19.409048080444336,0,-26.04460906982422]},{"mesh":4,"name":"Curve.002","scale":[5039.08056640625,53.4549560546875,5039.08056640625]},{"mesh":5,"name":"Curve.003","scale":[5039.08056640625,53.4549560546875,5039.08056640625]},{"mesh":6,"name":"Curve.005","scale":[5039.08056640625,76.1898193359375,5039.08056640625]},{"mesh":7,"name":"Curve.008","scale":[5039.08056640625,53.4549560546875,5039.08056640625]}],"materials":[{"doubleSided":true,"name":"SVGMat.016","pbrMetallicRoughness":{"baseColorFactor":[0,0,0,1],"metallicFactor":0,"roughnessFactor":0.4000000059604645}},{"doubleSided":true,"name":"Material.001","pbrMetallicRoughness":{"baseColorFactor":[0,0,0,1],"metallicFactor":0,"roughnessFactor":0.5}},{"doubleSided":true,"name":"Material.002","pbrMetallicRoughness":{}},{"doubleSided":true,"name":"Material.003","pbrMetallicRoughness":{}},{"doubleSided":true,"name":"SVGMat.003","pbrMetallicRoughness":{"baseColorFactor":[1,0.11987657845020294,0.01641813851892948,1],"metallicFactor":0,"roughnessFactor":0.4000000059604645}},{"doubleSided":true,"name":"SVGMat.004","pbrMetallicRoughness":{"baseColorFactor":[0,0,0,1],"metallicFactor":0,"roughnessFactor":0.4000000059604645}},{"doubleSided":true,"name":"SVGMat.006","pbrMetallicRoughness":{"baseColorFactor":[1,0.1022416427731514,0.01850024238228798,1],"metallicFactor":0,"roughnessFactor":0.4000000059604645}},{"doubleSided":true,"name":"SVGMat.005","pbrMetallicRoughness":{"baseColorFactor":[1,0.1022416427731514,0.01850024238228798,1],"metallicFactor":0,"roughnessFactor":0.4000000059604645}},{"doubleSided":true,"name":"SVGMat.007","pbrMetallicRoughness":{"baseColorFactor":[1,0.1022416427731514,0.01850024238228798,1],"metallicFactor":0,"roughnessFactor":0.4000000059604645}},{"doubleSided":true,"name":"SVGMat.008","pbrMetallicRoughness":{"baseColorFactor":[1,0.1022416427731514,0.01850024238228798,1],"metallicFactor":0,"roughnessFactor":0.4000000059604645}},{"doubleSided":true,"name":"SVGMat.009","pbrMetallicRoughness":{"baseColorFactor":[0,0,0,1],"metallicFactor":0,"roughnessFactor":0.4000000059604645}}],"meshes":[{"name":"Curve.015","primitives":[{"attributes":{"POSITION":0,"NORMAL":1,"TEXCOORD_0":2},"indices":3,"material":0}]},{"name":"Cylinder","primitives":[{"attributes":{"POSITION":4,"NORMAL":5,"TEXCOORD_0":6},"indices":7,"material":1}]},{"name":"Cylinder.004","primitives":[{"attributes":{"POSITION":8,"NORMAL":9,"TEXCOORD_0":10},"indices":11,"material":2}]},{"name":"Cylinder.003","primitives":[{"attributes":{"POSITION":12,"NORMAL":13,"TEXCOORD_0":14},"indices":11,"material":3}]},{"name":"Curve.002","primitives":[{"attributes":{"POSITION":15,"NORMAL":16,"TEXCOORD_0":17},"indices":18,"material":4}]},{"name":"Curve.003","primitives":[{"attributes":{"POSITION":19,"NORMAL":20,"TEXCOORD_0":21},"indices":22,"material":5}]},{"name":"Curve.005","primitives":[{"attributes":{"POSITION":23,"NORMAL":24,"TEXCOORD_0":25},"indices":26,"material":6},{"attributes":{"POSITION":27,"NORMAL":28,"TEXCOORD_0":29},"indices":30,"material":7},{"attributes":{"POSITION":31,"NORMAL":32,"TEXCOORD_0":33},"indices":34,"material":8},{"attributes":{"POSITION":35,"NORMAL":36,"TEXCOORD_0":37},"indices":38,"material":9}]},{"name":"Curve.008","primitives":[{"attributes":{"POSITION":39,"NORMAL":40,"TEXCOORD_0":41},"indices":42,"material":10}]}],"accessors":[{"bufferView":0,"componentType":5126,"count":318,"max":[0.0006198801565915346,0.009999999776482582,0.0003086351789534092],"min":[-0.0007517479825764894,-0.009999999776482582,-0.0002621808089315891],"type":"VEC3"},{"bufferView":1,"componentType":5126,"count":318,"type":"VEC3"},{"bufferView":2,"componentType":5126,"count":318,"type":"VEC2"},{"bufferView":3,"componentType":5123,"count":588,"type":"SCALAR"},{"bufferView":4,"componentType":5126,"count":2728,"max":[0.9997730255126953,1,1],"min":[-0.9997882843017578,-1,-1],"type":"VEC3"},{"bufferView":5,"componentType":5126,"count":2728,"type":"VEC3"},{"bufferView":6,"componentType":5126,"count":2728,"type":"VEC2"},{"bufferView":7,"componentType":5123,"count":5448,"type":"SCALAR"},{"bufferView":8,"componentType":5126,"count":900,"max":[0.9997806549072266,1,1],"min":[-0.9997806549072266,-1,-1],"type":"VEC3"},{"bufferView":9,"componentType":5126,"count":900,"type":"VEC3"},{"bufferView":10,"componentType":5126,"count":900,"type":"VEC2"},{"bufferView":11,"componentType":5123,"count":1788,"type":"SCALAR"},{"bufferView":12,"componentType":5126,"count":900,"max":[0.9997806549072266,1,1],"min":[-0.9997806549072266,-1,-1],"type":"VEC3"},{"bufferView":13,"componentType":5126,"count":900,"type":"VEC3"},{"bufferView":14,"componentType":5126,"count":900,"type":"VEC2"},{"bufferView":15,"componentType":5126,"count":14,"max":[0.003378269262611866,0.009999999776482582,-0.004822257906198502],"min":[0.0029464601539075375,-0.009999999776482582,-0.005022597499191761],"type":"VEC3"},{"bufferView":16,"componentType":5126,"count":14,"type":"VEC3"},{"bufferView":17,"componentType":5126,"count":14,"type":"VEC2"},{"bufferView":18,"componentType":5123,"count":24,"type":"SCALAR"},{"bufferView":19,"componentType":5126,"count":565,"max":[0.004837387707084417,0.009999999776482582,-0.0007251724600791931],"min":[0.0015776545042172074,-0.009999999776482582,-0.004032186232507229],"type":"VEC3"},{"bufferView":20,"componentType":5126,"count":565,"type":"VEC3"},{"bufferView":21,"componentType":5126,"count":565,"type":"VEC2"},{"bufferView":22,"componentType":5123,"count":996,"type":"SCALAR"},{"bufferView":23,"componentType":5126,"count":146,"max":[0.004721674136817455,0.009999999776482582,-0.002662832150235772],"min":[0.0036266297101974487,-0.009999999776482582,-0.003244936466217041],"type":"VEC3"},{"bufferView":24,"componentType":5126,"count":146,"type":"VEC3"},{"bufferView":25,"componentType":5126,"count":146,"type":"VEC2"},{"bufferView":26,"componentType":5123,"count":276,"type":"SCALAR"},{"bufferView":27,"componentType":5126,"count":170,"max":[0.003530672285705805,0.010000000707805157,-0.002598770894110203],"min":[0.002936324570327997,-0.010000000707805157,-0.0038346685469150543],"type":"VEC3"},{"bufferView":28,"componentType":5126,"count":170,"type":"VEC3"},{"bufferView":29,"componentType":5126,"count":170,"type":"VEC2"},{"bufferView":30,"componentType":5123,"count":276,"type":"SCALAR"},{"bufferView":31,"componentType":5126,"count":160,"max":[0.0033415795769542456,0.010000000707805157,-0.0021303710527718067],"min":[0.0030137505382299423,-0.010000000707805157,-0.002903512679040432],"type":"VEC3"},{"bufferView":32,"componentType":5126,"count":160,"type":"VEC3"},{"bufferView":33,"componentType":5126,"count":160,"type":"VEC2"},{"bufferView":34,"componentType":5123,"count":276,"type":"SCALAR"},{"bufferView":35,"componentType":5126,"count":142,"max":[0.004092305898666382,0.010000000707805157,-0.00225293030962348],"min":[0.003381091170012951,-0.010000000707805157,-0.002483082003891468],"type":"VEC3"},{"bufferView":36,"componentType":5126,"count":142,"type":"VEC3"},{"bufferView":37,"componentType":5126,"count":142,"type":"VEC2"},{"bufferView":38,"componentType":5123,"count":276,"type":"SCALAR"},{"bufferView":39,"componentType":5126,"count":14,"max":[0.0034488262608647346,0.009999999776482582,-0.0001382622867822647],"min":[0.0021985559724271297,-0.009999999776482582,-0.0016873669810593128],"type":"VEC3"},{"bufferView":40,"componentType":5126,"count":14,"type":"VEC3"},{"bufferView":41,"componentType":5126,"count":14,"type":"VEC2"},{"bufferView":42,"componentType":5123,"count":24,"type":"SCALAR"}],"bufferViews":[{"buffer":0,"byteLength":3816,"byteOffset":0},{"buffer":0,"byteLength":3816,"byteOffset":3816},{"buffer":0,"byteLength":2544,"byteOffset":7632},{"buffer":0,"byteLength":1176,"byteOffset":10176},{"buffer":0,"byteLength":32736,"byteOffset":11352},{"buffer":0,"byteLength":32736,"byteOffset":44088},{"buffer":0,"byteLength":21824,"byteOffset":76824},{"buffer":0,"byteLength":10896,"byteOffset":98648},{"buffer":0,"byteLength":10800,"byteOffset":109544},{"buffer":0,"byteLength":10800,"byteOffset":120344},{"buffer":0,"byteLength":7200,"byteOffset":131144},{"buffer":0,"byteLength":3576,"byteOffset":138344},{"buffer":0,"byteLength":10800,"byteOffset":141920},{"buffer":0,"byteLength":10800,"byteOffset":152720},{"buffer":0,"byteLength":7200,"byteOffset":163520},{"buffer":0,"byteLength":168,"byteOffset":170720},{"buffer":0,"byteLength":168,"byteOffset":170888},{"buffer":0,"byteLength":112,"byteOffset":171056},{"buffer":0,"byteLength":48,"byteOffset":171168},{"buffer":0,"byteLength":6780,"byteOffset":171216},{"buffer":0,"byteLength":6780,"byteOffset":177996},{"buffer":0,"byteLength":4520,"byteOffset":184776},{"buffer":0,"byteLength":1992,"byteOffset":189296},{"buffer":0,"byteLength":1752,"byteOffset":191288},{"buffer":0,"byteLength":1752,"byteOffset":193040},{"buffer":0,"byteLength":1168,"byteOffset":194792},{"buffer":0,"byteLength":552,"byteOffset":195960},{"buffer":0,"byteLength":2040,"byteOffset":196512},{"buffer":0,"byteLength":2040,"byteOffset":198552},{"buffer":0,"byteLength":1360,"byteOffset":200592},{"buffer":0,"byteLength":552,"byteOffset":201952},{"buffer":0,"byteLength":1920,"byteOffset":202504},{"buffer":0,"byteLength":1920,"byteOffset":204424},{"buffer":0,"byteLength":1280,"byteOffset":206344},{"buffer":0,"byteLength":552,"byteOffset":207624},{"buffer":0,"byteLength":1704,"byteOffset":208176},{"buffer":0,"byteLength":1704,"byteOffset":209880},{"buffer":0,"byteLength":1136,"byteOffset":211584},{"buffer":0,"byteLength":552,"byteOffset":212720},{"buffer":0,"byteLength":168,"byteOffset":213272},{"buffer":0,"byteLength":168,"byteOffset":213440},{"buffer":0,"byteLength":112,"byteOffset":213608},{"buffer":0,"byteLength":48,"byteOffset":213720}],"buffers":[{"byteLength":213768,"uri":"data:application/octet-stream;base64,"}]}